<svg width="650" height="739" viewBox="0 0 650 739" fill="none" xmlns="http://www.w3.org/2000/svg">
<path d="M298.299 28.9317C361.141 14.4851 417.172 62.0209 417.303 122.37C416.083 132.316 414.408 142.731 412.321 153.35C399.138 192.618 362.537 218.946 320.996 218.946C317.834 218.946 314.551 218.787 311.075 218.451L310.775 218.451C254.71 212.543 214.409 159.688 227.002 101.128C234.679 65.4493 262.736 37.1253 298.299 28.9498L298.299 28.9317ZM308.183 244.573L308.733 244.573C312.883 244.969 317.01 245.167 320.996 245.167C374.188 245.167 421.024 211.236 437.531 160.731L437.932 159.205C440.275 147.39 442.138 135.783 443.476 124.703L443.575 122.583C443.575 47.392 375.528 -12.206 297.784 2.14564C248.082 11.3198 208.855 50.8958 200.301 100.713C187.882 173.065 238.493 237.271 308.187 244.521" fill="white" fill-opacity="0.15"/>
<path d="M614.844 354.712C589.819 329.689 551.238 326.305 522.535 344.535C500.978 334.031 473.197 331.06 439.761 335.715C426.143 337.609 413.923 340.336 402.818 343.93C408.76 338.299 415.406 332.35 423.551 325.664C437.833 313.921 453.194 302.819 469.213 292.649L470.475 291.846C477.638 287.318 485.076 282.879 492.555 278.679C492.615 278.679 492.667 278.58 492.726 278.58C504.333 273.699 516.632 271.223 529.302 271.223C581.15 271.223 623.343 313.326 623.508 365.14C620.981 361.468 618.107 357.975 614.844 354.712ZM600.618 445.071C597.066 447.843 593.261 450.636 589.306 453.377L586.209 454.977C565.58 465.611 540.698 461.722 524.266 445.295C523.026 444.055 521.794 442.694 520.579 441.221L520.425 441.042C503.076 419.604 504.729 388.701 524.266 369.162C534.761 358.67 548.545 353.423 562.328 353.423C576.111 353.423 589.901 358.669 600.399 369.165C621.311 390.08 621.395 424.095 600.618 445.071ZM478.208 624.277C445.147 650.779 402.966 677.565 352.708 701.012C347.698 703.023 342.634 704.94 337.534 706.784L337.281 704.741C332.257 663.758 327.512 625.053 309.091 581.532C288.345 532.514 252.557 495.929 205.599 475.723C184.58 466.677 115.416 441.111 56.349 465.786C45.6065 441.846 36.0418 415.288 29.5611 386.906C28.9109 384.048 28.327 381.212 28.327 381.212C27.9489 379.377 27.6342 377.754 27.3789 376.405L27.3094 375.999C26.5998 371.494 26.2159 366.746 26.2713 361.788C26.3703 353.38 27.7696 345.514 29.9411 338.204C32.8815 385.137 71.9736 422.424 119.628 422.424C165.765 422.424 204.202 387.815 209.042 341.864L209.082 341.428C209.374 338.409 209.519 335.416 209.519 332.534C209.519 322.471 207.785 312.701 204.629 303.524C212.74 309.348 220.629 315.383 228.201 321.608C245.562 335.87 256.234 346.803 267.549 358.399C281.287 372.475 296.856 388.425 325.976 412.408C357.328 438.208 380.996 454.313 407.67 467.99C447.624 488.469 473.958 493.356 490.328 495.252C499.217 496.26 508.121 496.72 516.818 496.594C518.956 496.782 521.06 496.92 523.086 497.009C525.45 497.118 527.793 497.167 530.052 497.167C548.457 497.167 566.38 493.907 583.191 487.595C557.294 540.215 521.536 586.474 478.208 624.277ZM133.596 588.251C133.596 588.251 99.5284 550.641 68.8471 491.613C107.56 476.396 157.832 486.332 194.291 502.016C234.903 519.492 264.661 549.998 282.731 592.689C299.292 631.813 303.733 666.37 308.609 706.112C240.732 681.274 180.93 640.41 133.596 588.251ZM119.276 266.427C124.744 267.1 130.461 267.973 136.269 269.03L140.349 270.333C167.498 279.004 185.733 304.002 185.733 332.535C185.733 334.696 185.62 336.949 185.4 339.261L185.37 339.568C181.373 377.466 146.076 404.883 106.631 397.411C81.7985 392.706 61.65 373.795 55.5869 349.259C44.8306 305.746 77.5666 266.598 119.276 266.427ZM504.653 454.028L504.877 454.296C506.471 456.224 508.131 458.056 509.818 459.744C514.101 464.029 518.831 467.696 523.868 470.737C522.067 470.638 520.259 470.529 518.447 470.37L517.759 470.271L517.064 470.271C509.29 470.4 501.284 470.004 493.321 469.104C479.01 467.445 455.809 463.097 419.651 444.563C401.056 435.033 383.89 424.107 363.971 408.968C359.002 405.194 358.202 397.982 362.247 393.235C369.618 384.585 379.698 376.92 391.551 371.078C405.61 364.146 422.327 359.398 442.67 356.564C461.874 353.891 478.693 353.975 492.993 356.802C498.623 357.914 501.406 364.3 498.464 369.229C482.848 395.405 484.61 429.216 504.653 453.981L504.653 454.028ZM529.302 245.217C512.823 245.217 496.823 248.505 481.745 254.989L480.525 255.593C472.417 260.136 464.337 264.946 456.527 269.887L455.248 270.699C438.361 281.416 422.132 293.153 407.035 305.564C388.74 320.589 377.686 331.912 365.988 343.903C356.042 354.094 345.067 365.319 328.348 380.041C309.137 363.403 297.148 351.12 286.328 340.032C274.51 327.922 263.35 316.487 244.873 301.315C229.631 288.782 213.242 276.931 196.19 266.109L194.896 265.287C187.549 259.965 177.233 253.65 163.99 248.684C146.975 242.304 131.814 240.664 121.408 240.375C54.4634 240.375 -6.11935e-05 294.842 -6.70462e-05 361.79C-6.75699e-05 367.78 0.454497 373.897 1.34129 379.96L1.55996 381.235C2.28345 385.059 2.92582 388.205 3.54043 390.938L3.87993 392.357L3.82042 392.159L3.87993 392.417C39.4822 555.366 160.632 687.694 320.05 737.763L323.987 739.001L326.343 738.258L328.31 738.871C328.562 738.97 328.831 738.97 329.084 738.871L332.593 737.772C490.465 688.188 610.437 557.146 645.697 395.779L645.746 395.522L645.687 395.72L646.026 394.314C646.638 391.607 647.269 388.491 647.987 384.705L648.206 383.441C649.084 377.434 649.533 371.381 649.533 365.447C649.533 299.149 595.596 245.217 529.302 245.217Z" fill="white" fill-opacity="0.15"/>
</svg>
