<svg width="346" height="91" viewBox="0 0 346 91" fill="none" xmlns="http://www.w3.org/2000/svg">
<path d="M105.425 40.7591H116.253V47.6247C115.872 47.7249 115.44 47.825 114.962 47.9251C114.256 48.071 113.463 48.2055 112.602 48.3256C111.75 48.4458 110.82 48.5459 109.845 48.6203C108.875 48.6946 107.885 48.7347 106.904 48.7347C104.412 48.7347 102.215 48.4515 100.379 47.8936C98.5592 47.3415 97.0316 46.5691 95.8358 45.5965C94.6543 44.6382 93.7618 43.4825 93.1839 42.1637C92.5975 40.8306 92.3029 39.3516 92.3029 37.764C92.3029 36.0618 92.6061 34.5142 93.204 33.1611C93.7933 31.8252 94.6944 30.6752 95.8787 29.7455C97.0802 28.7986 98.6164 28.0576 100.447 27.5427C102.304 27.0192 104.515 26.756 107.024 26.756C108.248 26.756 109.407 26.8447 110.468 27.0192C111.535 27.1937 112.545 27.434 113.469 27.7315C114.393 28.029 115.268 28.3809 116.069 28.7785C116.879 29.179 117.651 29.611 118.364 30.0601L119.422 30.7295V26.0752L118.999 25.8978C118.066 25.5088 117.119 25.1483 116.19 24.8279C115.251 24.5047 114.279 24.2243 113.295 23.9955C112.302 23.7638 111.255 23.5835 110.176 23.4577C109.095 23.3318 107.914 23.2689 106.669 23.2689C105.01 23.2689 103.397 23.4004 101.869 23.655C100.333 23.9125 98.8767 24.3044 97.5436 24.8136C96.1962 25.3285 94.9518 25.9922 93.8447 26.7846C92.7262 27.5856 91.7536 28.5382 90.9583 29.6196C90.1631 30.7009 89.5394 31.9339 89.1046 33.2841C88.6726 34.6315 88.4524 36.1391 88.4524 37.7668C88.4524 40.2041 88.9272 42.3611 89.8655 44.1833C90.801 46.0027 92.114 47.5332 93.7618 48.7347C95.3924 49.9219 97.3434 50.8201 99.5604 51.4008C101.752 51.9758 104.158 52.2648 106.709 52.2648C107.948 52.2648 109.149 52.219 110.279 52.1275C111.415 52.0359 112.522 51.8986 113.572 51.7241C114.631 51.5467 115.669 51.3236 116.656 51.0604C117.646 50.7972 118.635 50.494 119.602 50.1536L120.063 49.9905V37.1146H105.436V40.7591H105.425Z" fill="white"/>
<path d="M130.201 23.7494H126.399V51.7412H130.201V23.7494Z" fill="white"/>
<path d="M165.951 26.7246C164.378 25.546 162.501 24.6649 160.373 24.1013C158.273 23.5463 155.979 23.266 153.556 23.266C151.94 23.266 150.369 23.389 148.893 23.635C147.405 23.881 145.995 24.2672 144.696 24.7764C143.392 25.2914 142.188 25.9493 141.118 26.7303C140.033 27.5227 139.098 28.4724 138.337 29.5538C137.576 30.6351 136.978 31.8738 136.558 33.2326C136.14 34.5915 135.928 36.1162 135.928 37.764C135.928 40.2499 136.389 42.4355 137.299 44.2606C138.208 46.0886 139.481 47.6162 141.086 48.8062C142.671 49.9848 144.562 50.8659 146.705 51.4266C148.816 51.9816 151.121 52.2619 153.559 52.2619C155.996 52.2619 158.276 51.9816 160.376 51.4266C162.504 50.863 164.381 49.9819 165.954 48.8033C167.545 47.6133 168.812 46.0857 169.719 44.2577C170.629 42.4326 171.089 40.247 171.089 37.7611C171.089 35.2752 170.629 33.0896 169.719 31.2645C168.809 29.4394 167.542 27.9117 165.954 26.7188L165.951 26.7246ZM153.556 48.7347C151.265 48.7347 149.225 48.4858 147.494 47.9966C145.792 47.5132 144.35 46.8009 143.215 45.8769C142.093 44.9643 141.235 43.8257 140.66 42.4898C140.079 41.1367 139.785 39.549 139.785 37.764C139.785 35.9789 140.079 34.4255 140.66 33.0667C141.232 31.725 142.09 30.5836 143.215 29.6711C144.35 28.7471 145.789 28.0319 147.494 27.5427C149.228 27.045 151.267 26.7932 153.556 26.7932C155.844 26.7932 157.878 27.0421 159.598 27.5313C161.288 28.0119 162.713 28.7242 163.834 29.6482C164.944 30.5607 165.794 31.6993 166.36 33.0352C166.935 34.3883 167.227 35.9789 167.227 37.764C167.227 39.549 166.935 41.1396 166.36 42.4927C165.794 43.8286 164.944 44.9672 163.834 45.8797C162.713 46.8037 161.285 47.5132 159.598 47.9966C157.878 48.4858 155.844 48.7347 153.556 48.7347Z" fill="white"/>
<path d="M188.885 47.8393L176.859 23.7494H172.605L186.58 51.7412H191.054L205.151 23.7494H200.912L188.885 47.8393Z" fill="white"/>
<path d="M232.414 25.4315C231.112 24.6734 229.567 24.1156 227.822 23.7723C226.106 23.4348 224.238 23.266 222.267 23.266C219.955 23.266 217.735 23.4491 215.67 23.8095C213.622 24.1671 211.671 24.5933 209.869 25.0711L209.357 25.2084V29.5738L210.295 29.2105C211.142 28.8815 212 28.5668 212.849 28.2693C213.679 27.9804 214.557 27.7229 215.458 27.5027C216.359 27.2824 217.341 27.1108 218.379 26.9849C219.42 26.859 220.59 26.7961 221.861 26.7961C222.802 26.7961 223.754 26.8361 224.696 26.9191C225.625 27.002 226.521 27.1365 227.356 27.3224C228.183 27.5055 228.961 27.7515 229.667 28.0491C230.348 28.338 230.946 28.6984 231.447 29.1218C231.927 29.5309 232.305 30.0115 232.571 30.555C232.834 31.09 232.966 31.725 232.966 32.4402V33.8219C230.706 33.9592 228.523 34.1252 226.472 34.3197C224.212 34.5342 222.081 34.8089 220.136 35.1407C218.182 35.4725 216.385 35.8816 214.795 36.3594C213.176 36.8457 211.768 37.4493 210.615 38.1559C209.422 38.8825 208.487 39.755 207.832 40.7476C207.16 41.7689 206.816 42.9532 206.816 44.2749C206.816 45.5965 207.108 46.7723 207.68 47.7821C208.249 48.7862 209.07 49.6358 210.115 50.3081C211.133 50.9632 212.383 51.4581 213.831 51.7842C215.25 52.1046 216.866 52.2676 218.639 52.2676C219.987 52.2676 221.383 52.1818 222.79 52.0102C224.189 51.8414 225.574 51.5954 226.904 51.2807C228.234 50.966 229.516 50.5884 230.717 50.1536C231.518 49.8647 232.268 49.5557 232.96 49.2296V51.7441H236.742V33.0038C236.742 31.2416 236.35 29.714 235.572 28.4667C234.805 27.2338 233.741 26.2125 232.408 25.4373L232.414 25.4315ZM232.966 37.352V45.2189C232.614 45.4621 232.196 45.7052 231.724 45.9427C231.112 46.2516 230.423 46.5491 229.676 46.8209C228.924 47.0955 228.108 47.353 227.25 47.5876C226.392 47.8193 225.508 48.0252 224.627 48.1969C223.746 48.3657 222.847 48.5001 221.961 48.5945C219.583 48.8463 217.378 48.7547 215.604 48.4086C214.517 48.1969 213.587 47.8822 212.838 47.4731C212.129 47.0841 211.582 46.6035 211.213 46.0428C210.853 45.4935 210.678 44.8756 210.678 44.1547C210.678 43.2994 211.041 42.547 211.785 41.849C212.592 41.0938 213.911 40.4158 215.707 39.8322C217.558 39.2286 219.987 38.708 222.928 38.2903C225.717 37.8927 229.09 37.578 232.966 37.3492V37.352Z" fill="white"/>
<path d="M270.79 25.7748C269.837 24.9195 268.633 24.2529 267.211 23.7923C265.812 23.3404 264.159 23.1086 262.302 23.1086C260.669 23.1086 259.092 23.2831 257.613 23.6293C256.146 23.9726 254.753 24.4188 253.468 24.9509C252.19 25.483 250.977 26.0752 249.864 26.7131C249.177 27.1079 248.522 27.4941 247.904 27.866V23.7437H244.102V51.7355H247.904V32.2142C248.579 31.6649 249.395 31.0899 250.333 30.4978C251.383 29.8341 252.553 29.2219 253.803 28.6784C255.053 28.1349 256.403 27.6772 257.814 27.3196C259.204 26.9677 260.643 26.7875 262.09 26.7875C263.34 26.7875 264.479 26.8933 265.475 27.1022C266.416 27.2995 267.22 27.6485 267.863 28.1377C268.49 28.6155 268.985 29.2791 269.328 30.1087C269.685 30.9698 269.866 32.1026 269.866 33.4758V51.7327H273.668V32.9523C273.668 31.479 273.43 30.123 272.961 28.9158C272.483 27.6886 271.754 26.6301 270.793 25.7662L270.79 25.7748Z" fill="white"/>
<path d="M307.804 25.7748C306.852 24.9195 305.647 24.2529 304.225 23.7923C302.827 23.3404 301.173 23.1086 299.317 23.1086C297.683 23.1086 296.107 23.2831 294.628 23.6293C293.16 23.9726 291.767 24.4188 290.483 24.9509C289.204 25.483 287.991 26.0752 286.878 26.7131C286.192 27.1079 285.537 27.4941 284.919 27.866V23.7437H281.117V51.7355H284.919V32.2142C285.594 31.6649 286.409 31.0899 287.347 30.4978C288.397 29.8341 289.567 29.2219 290.817 28.6784C292.068 28.1349 293.418 27.6772 294.828 27.3196C296.218 26.9677 297.657 26.7875 299.105 26.7875C300.355 26.7875 301.493 26.8933 302.489 27.1022C303.43 27.2995 304.234 27.6485 304.878 28.1377C305.504 28.6155 305.999 29.2791 306.342 30.1087C306.7 30.9698 306.88 32.1026 306.88 33.4758V51.7327H310.682V32.9523C310.682 31.479 310.445 30.123 309.975 28.9158C309.498 27.6886 308.768 26.6301 307.807 25.7662L307.804 25.7748Z" fill="white"/>
<path d="M341.672 25.4315C340.373 24.6734 338.828 24.1156 337.08 23.7723C335.364 23.4348 333.496 23.266 331.525 23.266C329.213 23.266 326.994 23.4491 324.928 23.8095C322.88 24.1671 320.929 24.5933 319.127 25.0711L318.615 25.2084V29.5738L319.553 29.2105C320.4 28.8815 321.258 28.5668 322.108 28.2693C322.937 27.9804 323.815 27.7229 324.716 27.5027C325.618 27.2853 326.599 27.1108 327.637 26.9849C328.679 26.859 329.849 26.7961 331.119 26.7961C332.06 26.7961 333.012 26.8361 333.954 26.9191C334.883 27.002 335.779 27.1365 336.614 27.3224C337.441 27.5055 338.219 27.7515 338.926 28.0491C339.606 28.338 340.204 28.6984 340.705 29.1218C341.185 29.5309 341.563 30.0115 341.829 30.555C342.092 31.09 342.224 31.725 342.224 32.4402V33.8219C339.964 33.9592 337.781 34.1252 335.73 34.3197C333.47 34.5342 331.339 34.8089 329.394 35.1407C327.44 35.4725 325.643 35.8816 324.053 36.3594C322.434 36.8457 321.026 37.4493 319.873 38.1559C318.68 38.8825 317.745 39.755 317.09 40.7476C316.418 41.7689 316.074 42.9532 316.074 44.2749C316.074 45.5965 316.366 46.7723 316.938 47.7821C317.508 48.7862 318.329 49.6358 319.373 50.3081C320.391 50.9632 321.641 51.4581 323.089 51.7842C324.508 52.1046 326.124 52.2676 327.898 52.2676C329.245 52.2676 330.641 52.1818 332.048 52.0102C333.45 51.8414 334.832 51.5954 336.162 51.2807C337.492 50.966 338.774 50.5856 339.975 50.1536C340.776 49.8647 341.526 49.5557 342.218 49.2296V51.7441H346V33.0038C346 31.2416 345.608 29.714 344.83 28.4667C344.063 27.2338 342.999 26.2125 341.666 25.4373L341.672 25.4315ZM342.224 37.352V45.2189C341.872 45.4621 341.454 45.7052 340.982 45.9427C340.37 46.2516 339.681 46.5491 338.934 46.8209C338.182 47.0955 337.366 47.353 336.508 47.5876C335.65 47.8221 334.766 48.0252 333.885 48.1969C333.004 48.3657 332.106 48.5001 331.219 48.5945C328.842 48.8463 326.636 48.7547 324.862 48.4086C323.775 48.1969 322.846 47.8822 322.096 47.4731C321.387 47.0841 320.84 46.6035 320.471 46.0428C320.111 45.4935 319.936 44.8756 319.936 44.1547C319.936 43.2994 320.3 42.547 321.043 41.849C321.85 41.0938 323.172 40.4158 324.965 39.8322C326.816 39.2286 329.245 38.708 332.186 38.2903C334.975 37.8927 338.348 37.578 342.224 37.3492V37.352Z" fill="white"/>
<path d="M112.797 64.4942C111.798 63.759 110.505 63.1955 108.958 62.8207C107.445 62.4546 105.608 62.2686 103.497 62.2686H88.4352V90.2604H92.2371V80.0335H103.497C105.608 80.0335 107.445 79.8475 108.958 79.4814C110.508 79.1066 111.801 78.5345 112.803 77.785C113.827 77.0183 114.588 76.0543 115.065 74.9272C115.532 73.8258 115.769 72.5499 115.769 71.1339C115.769 69.7178 115.532 68.4391 115.065 67.3406C114.585 66.2106 113.821 65.2523 112.797 64.4971V64.4942ZM104.243 76.3976C103.434 76.3918 102.673 76.389 101.961 76.389H92.24V65.916H101.961C103.76 65.916 105.336 65.9875 106.646 66.1248C107.899 66.2593 108.938 66.5196 109.736 66.9029C110.483 67.2605 111.015 67.7526 111.366 68.4019C111.73 69.0713 111.913 69.9896 111.913 71.1339C111.913 72.1122 111.767 72.9218 111.484 73.5369C111.201 74.1462 110.823 74.6411 110.36 75.013C109.882 75.3934 109.321 75.6824 108.695 75.8683C108.022 76.0686 107.304 76.2087 106.558 76.2888C105.802 76.3689 105.022 76.4061 104.243 76.4004V76.3976Z" fill="white"/>
<path d="M144.076 63.9507C142.774 63.1926 141.229 62.6347 139.484 62.2914C137.768 61.9539 135.9 61.7851 133.929 61.7851C131.617 61.7851 129.397 61.9682 127.332 62.3286C125.287 62.6862 123.333 63.1125 121.531 63.5902L121.018 63.7275V68.0929L121.957 67.7296C122.804 67.4006 123.662 67.086 124.511 66.7884C125.341 66.4995 126.219 66.2421 127.12 66.0218C128.021 65.8015 129.003 65.6299 130.041 65.504C131.082 65.3781 132.252 65.3152 133.523 65.3152C134.464 65.3152 135.416 65.3552 136.357 65.4382C137.287 65.5212 138.183 65.6556 139.018 65.8416C139.845 66.0246 140.623 66.2707 141.329 66.5682C142.01 66.8571 142.608 67.2175 143.109 67.6409C143.589 68.05 143.967 68.5306 144.233 69.0741C144.496 69.6091 144.628 70.2442 144.628 70.9593V72.341C142.368 72.4783 140.185 72.6443 138.134 72.8388C135.874 73.0534 133.743 73.328 131.798 73.6598C129.844 73.9917 128.047 74.4007 126.457 74.8785C124.837 75.3648 123.43 75.9684 122.277 76.675C121.084 77.4016 120.149 78.2741 119.494 79.2668C118.821 80.288 118.478 81.4752 118.478 82.794C118.478 84.1128 118.77 85.2914 119.342 86.3012C119.911 87.3053 120.732 88.1549 121.777 88.8272C122.795 89.4823 124.045 89.9772 125.493 90.3033C126.911 90.6237 128.528 90.7868 130.301 90.7868C131.649 90.7868 133.045 90.7009 134.452 90.5293C135.854 90.3605 137.236 90.1145 138.566 89.7998C139.893 89.4851 141.178 89.1075 142.379 88.6727C143.18 88.3838 143.93 88.0748 144.622 87.7487V90.2632H148.404V71.5229C148.404 69.7607 148.012 68.2331 147.234 66.9858C146.467 65.7529 145.403 64.7316 144.07 63.9564L144.076 63.9507ZM144.625 75.8711V83.738C144.273 83.9812 143.858 84.2243 143.383 84.4618C142.771 84.7707 142.082 85.0682 141.335 85.34C140.583 85.6146 139.767 85.8721 138.909 86.1067C138.051 86.3384 137.17 86.5443 136.286 86.716C135.405 86.8848 134.507 87.0192 133.62 87.1136C131.245 87.3654 129.037 87.2738 127.263 86.9277C126.176 86.716 125.247 86.4013 124.497 85.9922C123.788 85.6032 123.241 85.1226 122.872 84.5619C122.512 84.0126 122.337 83.3947 122.337 82.6738C122.337 81.8185 122.701 81.0661 123.447 80.3681C124.254 79.6129 125.576 78.9349 127.369 78.3513C129.22 77.7477 131.649 77.2271 134.59 76.8094C137.379 76.4118 140.751 76.0971 144.628 75.8683L144.625 75.8711Z" fill="white"/>
<path d="M181.25 81.7899C180.575 82.3391 179.768 82.917 178.85 83.5091C177.823 84.17 176.673 84.7821 175.434 85.3257C174.201 85.8692 172.863 86.3269 171.461 86.6845C170.082 87.0364 168.649 87.2137 167.204 87.2137C165.954 87.2137 164.821 87.1108 163.834 86.9076C162.902 86.716 162.104 86.3727 161.46 85.8892C160.836 85.4201 160.35 84.7593 160.012 83.924C159.661 83.0572 159.489 81.9157 159.503 80.5226V62.2657H155.644V81.0461C155.644 82.4707 155.882 83.7952 156.351 84.9881C156.826 86.1982 157.552 87.2566 158.511 88.1377C159.46 89.0131 160.665 89.6997 162.086 90.1831C163.488 90.658 165.139 90.8983 167.001 90.8983C168.635 90.8983 170.205 90.7238 171.67 90.3777C173.12 90.0344 174.502 89.5881 175.775 89.0532C177.045 88.5211 178.241 87.926 179.331 87.2881C180 86.8962 180.641 86.51 181.253 86.1324V90.2575H185.112V62.2657H181.253V81.787L181.25 81.7899Z" fill="white"/>
<path d="M200.154 86.1553C199.107 85.9178 198.308 85.5574 197.779 85.0854C197.264 84.6248 196.935 84.0469 196.772 83.3175C196.589 82.505 196.498 81.5124 196.498 80.3681V62.2657H192.696V80.8316C192.696 82.4021 192.867 83.7838 193.208 84.9395C193.565 86.1581 194.212 87.1851 195.13 87.9861C196.031 88.7728 197.241 89.3564 198.732 89.7254C200.168 90.0801 201.999 90.2575 204.176 90.2575H217.378V86.5357H204.659C202.783 86.5357 201.266 86.407 200.154 86.1553Z" fill="white"/>
<path d="M252.79 69.7864C251.881 67.9613 250.613 66.4309 249.026 65.2408C247.452 64.0622 245.573 63.1811 243.447 62.6176C241.347 62.0626 239.053 61.7822 236.633 61.7822C235.014 61.7822 233.446 61.9052 231.97 62.1513C230.483 62.3973 229.072 62.7835 227.774 63.2927C226.469 63.8076 225.265 64.4656 224.195 65.2465C223.111 66.0361 222.175 66.9887 221.414 68.07C220.653 69.1514 220.055 70.3901 219.635 71.7489C219.217 73.1077 219.003 74.6324 219.003 76.2802C219.003 78.7661 219.463 80.9517 220.373 82.7768C221.283 84.6048 222.559 86.1324 224.161 87.3224C225.745 88.4982 227.636 89.3821 229.779 89.9428C231.89 90.4978 234.196 90.7782 236.633 90.7782C239.07 90.7782 241.35 90.4978 243.447 89.9428C245.576 89.3793 247.452 88.4982 249.026 87.3196C250.616 86.1296 251.883 84.6019 252.79 82.774C253.7 80.9488 254.161 78.7633 254.161 76.2773C254.161 73.7914 253.7 71.6058 252.79 69.7807V69.7864ZM236.627 87.2538C234.336 87.2538 232.296 87.0049 230.566 86.5157C228.863 86.0323 227.422 85.32 226.286 84.396C225.165 83.4834 224.306 82.3449 223.731 81.0089C223.151 79.6558 222.856 78.0681 222.856 76.2831C222.856 74.498 223.151 72.9446 223.731 71.5858C224.304 70.2442 225.162 69.0999 226.283 68.1902C227.419 67.2662 228.861 66.551 230.563 66.0618C232.296 65.5641 234.336 65.3123 236.625 65.3123C238.913 65.3123 240.947 65.5612 242.666 66.0504C244.354 66.531 245.782 67.2433 246.906 68.1673C248.016 69.0799 248.865 70.2184 249.432 71.5543C250.007 72.9074 250.299 74.498 250.299 76.2831C250.299 78.0681 250.007 79.6558 249.432 81.0118C248.865 82.3477 248.016 83.4863 246.906 84.3988C245.782 85.3228 244.357 86.0323 242.666 86.5157C240.947 87.0049 238.913 87.2538 236.625 87.2538H236.627Z" fill="white"/>
<path d="M101.786 1.88806C101.039 1.33022 100.147 0.932587 99.1371 0.700872C98.1387 0.474878 97.0402 0.357586 95.8788 0.357586H88.441V14.8241H95.8988C96.6769 14.8241 97.4292 14.7726 98.133 14.6725C98.8424 14.5723 99.5118 14.4093 100.118 14.1861C100.73 13.963 101.294 13.6598 101.798 13.2879C102.301 12.9131 102.736 12.4526 103.091 11.9176C103.442 11.3827 103.717 10.7505 103.912 10.0324C104.103 9.32012 104.2 8.49338 104.2 7.58082C104.2 6.21341 103.986 5.05197 103.563 4.12797C103.136 3.20111 102.541 2.44589 101.792 1.88519L101.786 1.88806ZM102.481 7.58654C102.481 8.69935 102.318 9.63193 101.998 10.3585C101.68 11.0766 101.228 11.6573 100.662 12.0835C100.09 12.5098 99.3945 12.8159 98.5936 12.9904C97.7783 13.1677 96.8657 13.2564 95.8816 13.2564H90.1202V1.9281H95.8816C96.5367 1.9281 97.1661 1.96529 97.7525 2.03967C98.3304 2.11405 98.871 2.23992 99.3602 2.41442C99.8437 2.58892 100.287 2.81778 100.673 3.10098C101.054 3.37847 101.383 3.72748 101.646 4.13941C101.912 4.55135 102.121 5.04911 102.267 5.61267C102.413 6.18194 102.487 6.84849 102.487 7.59227L102.481 7.58654Z" fill="white"/>
<path d="M117.729 0.114426C117.583 0.0944009 117.428 0.0743814 117.265 0.0572172C117.102 0.0400531 116.922 0.0257427 116.727 0.0142999C116.533 0.00285719 116.315 0 116.072 0C115.363 0 114.668 0.0829557 114.001 0.246015C113.338 0.409074 112.697 0.637936 112.093 0.924005C111.492 1.21007 110.909 1.56193 110.365 1.96243C109.956 2.26566 109.564 2.59465 109.198 2.94365V0.357586H107.516V14.8241H109.198V4.92897C109.573 4.4827 109.999 4.05359 110.46 3.65309C110.94 3.23829 111.467 2.86927 112.027 2.55459C112.588 2.24278 113.203 1.99389 113.858 1.81081C114.51 1.62773 115.217 1.53619 115.958 1.53619C116.493 1.53619 116.936 1.57052 117.274 1.63918C117.617 1.70783 117.886 1.77363 118.078 1.8337L118.338 1.9138V0.211688L118.172 0.183079C118.02 0.154473 117.872 0.131587 117.726 0.111562L117.729 0.114426Z" fill="white"/>
<path d="M132.501 1.22437C131.829 0.83246 131.031 0.54353 130.124 0.366168C129.229 0.191666 128.25 0.100126 127.22 0.100126C126.008 0.100126 124.843 0.194526 123.762 0.383331C122.686 0.572136 121.659 0.795272 120.71 1.04701L120.561 1.08706V3.02947L120.835 2.92362C121.285 2.74912 121.739 2.58034 122.191 2.42587C122.632 2.27139 123.101 2.13407 123.585 2.01678C124.065 1.89949 124.591 1.80509 125.146 1.73929C125.704 1.6735 126.331 1.63918 127.006 1.63918C127.509 1.63918 128.019 1.66206 128.519 1.70497C129.017 1.74788 129.498 1.82226 129.947 1.92238C130.393 2.02251 130.813 2.1541 131.197 2.31429C131.572 2.47163 131.903 2.67188 132.178 2.90646C132.45 3.13531 132.661 3.40994 132.813 3.71603C132.962 4.02212 133.039 4.37971 133.039 4.78307V5.66702C131.786 5.7414 130.585 5.83294 129.46 5.93879C128.267 6.05036 127.146 6.19624 126.125 6.37075C125.098 6.54525 124.157 6.75981 123.321 7.01155C122.477 7.26615 121.748 7.57796 121.15 7.94412C120.541 8.31601 120.063 8.75942 119.731 9.26576C119.394 9.77782 119.222 10.3757 119.222 11.0394C119.222 11.7031 119.368 12.3038 119.657 12.813C119.946 13.3222 120.361 13.7513 120.89 14.0917C121.41 14.4264 122.054 14.6839 122.801 14.8498C123.539 15.0157 124.383 15.1016 125.307 15.1016C126.013 15.1016 126.746 15.0558 127.481 14.9671C128.216 14.8784 128.943 14.7497 129.638 14.5838C130.333 14.4207 131.005 14.2205 131.634 13.9945C132.144 13.8114 132.616 13.6111 133.039 13.3995V14.8241H134.713V5.08344C134.713 4.18232 134.512 3.40422 134.12 2.77201C133.729 2.14266 133.185 1.62201 132.504 1.22437H132.501ZM133.039 7.21179V11.6258C132.833 11.7746 132.581 11.9233 132.295 12.0692C131.966 12.2352 131.597 12.3925 131.194 12.5412C130.793 12.6871 130.356 12.8273 129.898 12.9503C129.44 13.0733 128.971 13.1849 128.499 13.2736C128.027 13.3651 127.547 13.4366 127.077 13.4853C125.81 13.6197 124.623 13.5711 123.67 13.3852C123.078 13.2707 122.572 13.0991 122.163 12.8731C121.762 12.6557 121.456 12.3811 121.244 12.0635C121.038 11.7517 120.936 11.3855 120.936 10.9765C120.936 10.4787 121.144 10.041 121.573 9.64052C122.017 9.22572 122.735 8.85669 123.708 8.53915C124.694 8.21589 125.987 7.94127 127.549 7.71814C129.068 7.50072 130.916 7.33194 133.042 7.20893L133.039 7.21179Z" fill="white"/>
<path d="M139.787 12.2008H137.605V14.8241H139.787V12.2008Z" fill="white"/>
<path d="M3.42415 54.765C1.17279 49.2324 -0.0973537 42.567 3.14667 37.5551C6.05884 33.0581 12.0606 31.2301 17.3242 32.2256C22.5879 33.2212 27.1364 36.5996 30.6951 40.6046C33.0151 43.2164 35.3351 46.3317 38.7794 46.9239C41.8432 47.4502 44.8812 45.7338 47.1097 43.5625C49.3382 41.3941 51.0575 38.7366 53.3574 36.6425C56.836 33.4729 61.7135 31.7536 66.3593 32.4974C71.005 33.2441 75.2446 36.6168 76.6005 41.1224C77.6533 44.621 76.981 48.4 75.9454 51.9043C72.135 64.7917 63.1839 75.9741 51.7068 82.8941C48.8376 84.6248 45.8081 86.0895 42.6613 87.2481C41.0193 87.8517 39.8579 88.3266 38.1901 87.7573C36.5995 87.2138 34.9918 86.4557 33.4556 85.7663C27.1335 82.9199 21.3464 78.9121 16.4117 74.0489C10.8562 68.5735 6.37067 61.9968 3.42988 54.765H3.42415Z" fill="#E5A9A9"/>
<path d="M44.3692 45.5393C43.5739 46.0914 42.8101 46.7208 42.2723 47.5275C41.7345 48.3342 41.4485 49.3469 41.6687 50.288C41.9777 51.604 43.1677 52.5022 44.3234 53.2031C50.0019 56.6617 56.6416 58.1321 63.1124 59.6225C63.4357 59.6968 63.7733 59.714 64.0994 59.6425C65.8043 59.262 65.5841 57.5742 64.7945 56.6388C64.2052 55.9408 63.3756 55.4916 62.7291 54.848C61.3159 53.4434 60.9354 51.2521 61.2644 49.2897C61.416 48.38 61.7021 47.5017 62.0511 46.6493C62.2914 46.0628 63.0924 45.0187 62.978 44.375C62.7749 43.2393 60.0057 42.8445 59.0989 42.6529C55.8835 41.972 52.4907 42.1379 49.3525 43.1163C47.5846 43.6684 45.894 44.478 44.3721 45.5364L44.3692 45.5393Z" fill="#A6D1B9"/>
<path d="M39.4689 28.4238C46.4805 28.4238 52.1646 22.7397 52.1646 15.7281C52.1646 8.71643 46.4805 3.03236 39.4689 3.03236C32.4572 3.03236 26.7731 8.71643 26.7731 15.7281C26.7731 22.7397 32.4572 28.4238 39.4689 28.4238Z" fill="#E5A9A9"/>
<path d="M69.3344 42.8846C67.4206 42.5442 65.3209 42.8588 63.8105 44.0803C63.204 44.5724 62.7148 45.1874 62.2285 45.7968C61.8194 46.3117 61.4075 46.8295 61.1128 47.4159C60.7695 48.0996 60.5951 48.8577 60.5178 49.6186C60.3977 50.8058 60.5121 52.0302 60.9669 53.1316C61.4533 54.3016 62.2943 55.2799 63.1239 56.2383C63.5616 56.7417 64.0164 57.2595 64.6229 57.5342C65.5726 57.9633 66.6797 57.7115 67.6895 57.4541C68.7337 57.1852 69.7807 56.9191 70.8249 56.6502C71.9405 56.3641 73.0963 56.058 73.9745 55.3114C75.0959 54.3559 75.5622 52.8598 75.977 51.4466C76.2773 50.4225 76.5806 49.3383 76.3202 48.3027C76.1171 47.4874 75.5908 46.8094 75.0959 46.1486C74.7554 45.6938 74.498 45.1617 74.026 44.827C72.6815 43.8744 70.9479 43.1735 69.3287 42.8846H69.3344Z" fill="#A6D1B9"/>
<path d="M15.9654 58.2207C17.9679 58.3981 19.9675 58.6412 21.9213 59.1132C25.952 60.0859 29.7968 62.097 32.5459 65.2008C35.0977 68.0815 36.5967 71.7689 37.4091 75.5307C38.2473 79.4184 38.3903 83.4205 38.5562 87.3911C38.562 87.5542 38.5362 87.7173 38.459 87.8603C38.0957 88.5297 37.4606 88.2837 36.9686 88.0376C35.707 87.3997 34.4454 86.7646 33.1867 86.1267C31.5332 85.2914 29.8798 84.4561 28.3093 83.472C25.1139 81.4667 22.3247 78.8835 19.5613 76.3174C18.3398 75.1817 17.1125 74.046 16.0054 72.7988C13.7198 70.2299 11.9719 67.2548 10.0323 64.4284C9.54315 63.7161 9.04539 63.0124 8.51902 62.3258C8.04701 61.7108 7.24316 61.0471 6.92562 60.3462C6.29055 58.9359 9.24278 58.4639 10.2469 58.2922C12.1321 57.969 14.0716 58.0577 15.9683 58.2236L15.9654 58.2207Z" fill="#A6D1B9"/>
<path d="M7.8955 34.0136C6.53095 34.8518 5.33804 36.0704 4.846 37.5952C4.36827 39.0856 4.59999 40.7133 5.04626 42.2123C5.79576 44.7383 7.19463 47.1499 9.35445 48.6574C12.464 50.8316 16.9582 50.7286 20.0134 48.4801C22.5708 46.5977 24.0212 43.4825 24.4503 40.3357C24.6648 38.7652 24.6391 37.1203 24.0183 35.6642C23.1287 33.5816 21.0804 32.137 18.8805 31.602C16.9925 31.1443 14.5294 31.1472 12.6929 31.8652C11.1109 32.486 9.35731 33.1153 7.89263 34.0136H7.8955Z" fill="#A6D1B9"/>
<path d="M37.4521 30.5407L37.5179 30.5464C38.0214 30.5951 38.5249 30.6179 39.0083 30.6179C45.4706 30.6179 51.1634 26.4957 53.1687 20.3595L53.2174 20.1736C53.5034 18.7375 53.7294 17.3272 53.8896 15.9827L53.9011 15.7252C53.9011 6.58818 45.6337 -0.65222 36.1877 1.0928C30.1488 2.20847 25.3829 7.01728 24.3416 13.0676C22.8311 21.8585 28.9816 29.6596 37.4492 30.5407H37.4521ZM36.2506 4.33968C43.8858 2.58322 50.6942 8.35894 50.7085 15.6937C50.5598 16.9009 50.3567 18.1682 50.1021 19.4584C48.5001 24.23 44.0546 27.4283 39.0055 27.4283C38.6221 27.4283 38.2216 27.4083 37.8011 27.3682H37.7639C30.9526 26.6473 26.0551 20.2251 27.5856 13.1105C28.5182 8.7766 31.9281 5.3352 36.2478 4.33968H36.2506Z" fill="white"/>
<path d="M64.3197 30.6179C62.3172 30.6179 60.3719 31.0184 58.5411 31.8051L58.3923 31.8766C57.4054 32.4288 56.4242 33.0123 55.4773 33.6131L55.3228 33.7132C53.2717 35.0148 51.2978 36.4423 49.4641 37.9499C47.2414 39.775 45.8969 41.151 44.4751 42.6071C43.2679 43.8458 41.9319 45.2075 39.9009 46.9982C37.5665 44.9757 36.1105 43.4853 34.7945 42.1379C33.3585 40.6675 32.0025 39.2772 29.7569 37.435C27.906 35.9131 25.9121 34.4713 23.841 33.1582L23.6836 33.0581C22.7911 32.4116 21.5381 31.6449 19.9275 31.0413C17.8593 30.2661 16.017 30.0658 14.7526 30.0315C6.61963 30.0315 0 36.6483 0 44.7841C0 45.5135 0.0543551 46.2545 0.163061 46.9925L0.188806 47.147C0.277488 47.6104 0.354725 47.9938 0.429103 48.3256L0.472012 48.4972L0.46343 48.4744L0.469157 48.5058C4.79452 68.3046 19.5156 84.3817 38.8853 90.4664L39.3631 90.6151L39.6491 90.5264L39.8894 90.6008C39.9209 90.6094 39.9524 90.6094 39.9838 90.6008L40.4101 90.4664C59.591 84.4418 74.169 68.5192 78.4543 48.9149L78.4601 48.8834L78.4515 48.9063L78.4915 48.7347C78.5659 48.4057 78.6432 48.0281 78.729 47.5675L78.7547 47.413C78.8605 46.6836 78.9149 45.9484 78.9149 45.2275C78.9149 37.1718 72.3611 30.6179 64.3054 30.6179H64.3197ZM61.3245 55.9894L61.3531 56.0208C61.5477 56.2554 61.7479 56.4786 61.9539 56.6817C62.4745 57.2023 63.0495 57.6486 63.6617 58.0176C63.4443 58.0062 63.224 57.9919 63.0038 57.9718L62.9208 57.9633H62.8378C61.8938 57.9804 60.9212 57.9318 59.9514 57.8231C58.2121 57.6228 55.3943 57.0936 51.0003 54.8422C48.7404 53.6837 46.6549 52.3563 44.2348 50.5169C43.6312 50.0592 43.5339 49.1809 44.026 48.6059C44.9214 47.5561 46.1457 46.6235 47.5875 45.914C49.2954 45.073 51.3264 44.4951 53.7981 44.1519C56.1324 43.8257 58.1749 43.8372 59.9114 44.1805C60.5951 44.3149 60.9326 45.0902 60.575 45.6909C58.6784 48.872 58.893 52.9799 61.3274 55.9894H61.3245ZM14.498 33.1954C15.1616 33.2784 15.8568 33.3842 16.5634 33.513L17.0583 33.6703C20.3566 34.723 22.5737 37.7611 22.5737 41.2282C22.5737 41.4914 22.5594 41.7632 22.5336 42.0464V42.0836C22.0445 46.6893 17.7563 50.0191 12.9646 49.1123C9.94661 48.5401 7.49786 46.243 6.76267 43.2622C5.45533 37.9756 9.43169 33.2183 14.5008 33.1983L14.498 33.1954ZM16.2401 72.2982C16.2401 72.2982 12.1007 67.7296 8.37324 60.5579C13.0762 58.7099 19.1838 59.9171 23.615 61.8223C28.5497 63.945 32.1656 67.6524 34.3597 72.8388C36.3708 77.5933 36.9114 81.7899 37.5036 86.6188C29.2562 83.6007 21.9901 78.6374 16.2373 72.2982H16.2401ZM58.112 76.675C54.0956 79.8961 48.9692 83.1487 42.8645 85.998C42.2552 86.2411 41.6402 86.4757 41.0194 86.6988L40.9879 86.45C40.3786 81.4695 39.8007 76.7694 37.5637 71.48C35.0434 65.5241 30.6952 61.0785 24.9881 58.6241C22.4335 57.5256 14.0288 54.4189 6.85421 57.4169C5.54974 54.5075 4.3883 51.2807 3.59875 47.8336C3.51865 47.4874 3.44713 47.1413 3.44713 47.1413C3.40136 46.9181 3.36417 46.7208 3.3327 46.5577L3.32412 46.5091C3.2383 45.9627 3.18966 45.3848 3.19825 44.7812C3.20969 43.7599 3.38134 42.8045 3.64452 41.9148C4.00211 47.6161 8.75085 52.1475 14.5409 52.1475C20.3309 52.1475 24.8165 47.9423 25.4058 42.3582L25.4115 42.3067C25.4458 41.9405 25.463 41.5772 25.463 41.2254C25.463 40.0039 25.2513 38.8167 24.8679 37.701C25.8549 38.4076 26.8104 39.1428 27.7315 39.898C29.8398 41.6316 31.1386 42.959 32.5117 44.3693C34.1795 46.08 36.0733 48.0166 39.6119 50.9317C43.4224 54.067 46.2974 56.0237 49.5385 57.6858C54.3931 60.1746 57.5942 60.7667 59.5824 60.9984C60.6609 61.1215 61.7451 61.1758 62.8007 61.1615C63.061 61.1844 63.3156 61.2016 63.5616 61.213C63.8477 61.2273 64.1337 61.233 64.4084 61.233C66.6454 61.233 68.8224 60.8382 70.8649 60.0687C67.7182 66.4624 63.3728 72.0807 58.1091 76.675H58.112ZM72.9847 54.8995C72.5527 55.237 72.0893 55.5746 71.6087 55.9093L71.2311 56.1038C68.7251 57.3968 65.7014 56.9248 63.7046 54.9281C63.553 54.7764 63.4043 54.6134 63.2555 54.4332L63.2355 54.4103C61.1272 51.8042 61.3274 48.051 63.7018 45.6766C64.9776 44.4007 66.6512 43.7628 68.3275 43.7628C70.0039 43.7628 71.6774 44.4007 72.9532 45.6766C75.4935 48.2169 75.505 52.3506 72.979 54.8995H72.9847ZM74.7126 43.923C71.6716 40.8821 66.983 40.473 63.4958 42.6872C60.8754 41.4113 57.5027 41.0509 53.4376 41.6144C51.7842 41.8461 50.2966 42.1751 48.9492 42.6128C49.6701 41.9291 50.4797 41.2054 51.4695 40.3929C53.2059 38.9654 55.0711 37.618 57.0192 36.3822L57.1737 36.285C58.0433 35.7357 58.9473 35.195 59.857 34.6858L59.877 34.6744C61.2874 34.0822 62.7835 33.779 64.3225 33.779C70.6218 33.779 75.7481 38.8939 75.7681 45.1903C75.4621 44.744 75.1131 44.3178 74.7154 43.923H74.7126Z" fill="white"/>
</svg>
