<svg width="68" height="76" viewBox="0 0 68 76" fill="none" xmlns="http://www.w3.org/2000/svg">
<path d="M27.8796 6.84159C34.8055 6.74309 35.4449 6.19906 42.3704 6.08572C42.847 15.4498 43.5339 24.79 43.6926 34.1775C43.7587 38.0882 43.2739 42.1683 43.6012 46.0606C43.6099 46.1663 50.8272 45.7612 52.9881 45.8517C47.6517 55.5729 42.512 65.4468 36.6958 74.9054C30.5312 66.5894 24.1972 56.2423 18.9318 47.1585C20.9937 46.4992 26.7174 46.3969 28.9245 46.3701C29.2818 43.1 28.8993 39.9302 28.8733 36.6455C28.7992 27.3883 28.6082 16.0669 27.8796 6.84159Z" stroke="white" stroke-width="2.08763" stroke-miterlimit="1.5" stroke-linecap="round" stroke-linejoin="round"/>
<path d="M40.3483 68.7449C36.0261 66.1687 31.1777 63.3642 27.0023 60.5584" stroke="white" stroke-width="2.08763" stroke-miterlimit="1.5" stroke-linecap="round" stroke-linejoin="round"/>
<path d="M43.6308 62.9882C36.1357 58.8998 27.6694 54.3507 20.4579 49.7711" stroke="white" stroke-width="2.08763" stroke-miterlimit="1.5" stroke-linecap="round" stroke-linejoin="round"/>
<path d="M46.7161 57.3241C40.4756 53.9608 33.7357 49.9658 27.5955 46.4208" stroke="white" stroke-width="2.08763" stroke-miterlimit="1.5" stroke-linecap="round" stroke-linejoin="round"/>
<path d="M43.6126 46.0667C39.063 43.9846 33.5507 41.29 28.9593 39.313" stroke="white" stroke-width="2.08763" stroke-miterlimit="1.5" stroke-linecap="round" stroke-linejoin="round"/>
<path d="M43.609 38.1235C38.9924 35.3395 33.5824 33.0468 28.7972 30.5466" stroke="white" stroke-width="2.08763" stroke-miterlimit="1.5" stroke-linecap="round" stroke-linejoin="round"/>
<path d="M43.5905 30.2383C39.0673 27.3426 33.3138 24.9281 28.6431 22.2418" stroke="white" stroke-width="2.08763" stroke-miterlimit="1.5" stroke-linecap="round" stroke-linejoin="round"/>
<path d="M43.2746 22.8146C38.5476 20.4291 33.1563 17.8472 28.3986 15.5187" stroke="white" stroke-width="2.08763" stroke-miterlimit="1.5" stroke-linecap="round" stroke-linejoin="round"/>
<path d="M42.8939 15.5507C38.2809 12.8784 32.9337 10.398 27.9985 8.34589" stroke="white" stroke-width="2.08763" stroke-miterlimit="1.5" stroke-linecap="round" stroke-linejoin="round"/>
</svg>
