<svg xmlns="http://www.w3.org/2000/svg" width="1440" height="385" fill="none"><path fill="#E5A9A9" fill-opacity=".53" d="M0 384.289V20.448c100.699-3.126 201.397-6.252 285-12.129 83.603-5.876 150.11-14.503 249-1.617 98.89 12.887 230.163 47.286 348 54.172 117.837 6.886 222.24-13.74 313-25.064 90.76-11.324 167.88-13.343 245-15.363V384.29H0Z"/><path fill="#E5A9A9" d="M0 384.289V182.155c93.56 19.939 187.12 39.878 271 41.235 83.88 1.358 158.081-15.865 254-19.405 95.919-3.539 213.555 6.604 323 .809s210.7-27.529 308-33.959c97.3-6.429 190.65 2.445 284 11.32v202.134H0Z"/></svg>