<svg width="1440" height="385" viewBox="0 0 1440 385" fill="none" xmlns="http://www.w3.org/2000/svg">
<path d="M0 384.289V20.4475C100.699 17.3217 201.397 14.1958 285 8.31942C368.603 2.44301 435.11 -6.18397 534 6.70234C632.89 19.5887 764.163 53.9883 882 60.8744C999.837 67.7605 1104.24 47.1331 1195 35.8097C1285.76 24.4863 1362.88 22.4669 1440 20.4475V384.289H0Z" fill="#E5A9A9" fill-opacity="0.53"/>
<path d="M0 384.289V182.155C93.5598 202.094 187.12 222.033 271 223.39C354.88 224.748 429.081 207.525 525 203.985C620.919 200.446 738.555 210.589 848 204.794C957.445 198.999 1058.7 177.265 1156 170.835C1253.3 164.406 1346.65 173.28 1440 182.155V384.289H0Z" fill="#E5A9A9"/>
</svg>
