<svg width="130" height="10" viewBox="0 0 130 10" fill="none" xmlns="http://www.w3.org/2000/svg">
<path d="M2 7.09486C3.48219 6.99349 4.89298 6.67498 6.24457 6.329C10.0684 5.35012 13.0238 3.78273 15.7111 2C15.7134 1.99846 16.7098 2.92961 16.8079 3.00737C17.7614 3.75963 19.0235 4.39229 20.4397 4.85247C25.8081 6.59593 32.7025 5.38734 35.3262 2.26333C35.3262 2.56003 36.2883 3.3246 36.493 3.45729C38.0913 4.49444 40.033 5.47383 42.3386 5.95839C47.9076 7.129 55.2679 5.54749 58.0421 2.54309C58.0823 3.04305 59.0249 3.85613 59.1203 3.92338C60.6192 4.98465 62.7661 5.82031 65.1136 6.11932C70.699 6.83102 76.7375 5.25747 79.3729 2.36753C79.7778 3.08796 80.5989 3.82354 80.8285 3.96906C82.5411 5.05471 84.6695 5.93247 87.1268 6.37931C93.1749 7.47933 101.464 5.46767 103.872 3.04588C103.776 3.24786 103.961 3.67365 103.993 3.70881C104.361 4.10791 104.865 4.4603 105.413 4.78369C106.882 5.6499 108.678 6.34055 110.548 6.8957C116.069 8.53547 124.492 8.65559 128 5.12812" stroke="#83A79D" stroke-width="2.76298" stroke-miterlimit="1.5" stroke-linecap="round" stroke-linejoin="round"/>
</svg>
