<svg width="177" height="177" viewBox="0 0 177 177" fill="none" xmlns="http://www.w3.org/2000/svg">
<path d="M54.9218 57.0828C59.3697 62.8362 63.3009 69.2278 68.0242 74.7407" stroke="white" stroke-width="2.76298" stroke-miterlimit="1.5" stroke-linecap="round" stroke-linejoin="round"/>
<path d="M55.6893 92.4325C58.5718 90.086 61.4922 86.2395 64.7523 84.4614" stroke="white" stroke-width="2.76298" stroke-miterlimit="1.5" stroke-linecap="round" stroke-linejoin="round"/>
<path d="M75.7573 75.0195C79.683 72.9117 82.9147 69.7863 86.8431 67.6504" stroke="white" stroke-width="2.76298" stroke-miterlimit="1.5" stroke-linecap="round" stroke-linejoin="round"/>
<path d="M74.749 84.8389C77.7769 89.4165 80.9451 93.897 84.0949 98.3903" stroke="white" stroke-width="2.76298" stroke-miterlimit="1.5" stroke-linecap="round" stroke-linejoin="round"/>
<path d="M86.071 118.139C84.0682 119.6 85.4661 123.339 88.077 122.11C89.2533 121.556 89.7653 118.742 88.2016 118.411" stroke="white" stroke-width="2.76298" stroke-miterlimit="1.5" stroke-linecap="round" stroke-linejoin="round"/>
<path d="M98.073 89.6222C100.228 93.3801 102.967 96.687 105.518 100.174" stroke="white" stroke-width="2.76298" stroke-miterlimit="1.5" stroke-linecap="round" stroke-linejoin="round"/>
<path d="M101.291 110.874C102.365 109.901 103.429 108.829 104.626 108.004" stroke="white" stroke-width="2.76298" stroke-miterlimit="1.5" stroke-linecap="round" stroke-linejoin="round"/>
<path d="M113.395 101.302C115.011 100.245 116.414 98.9725 117.931 97.7839" stroke="white" stroke-width="2.76298" stroke-miterlimit="1.5" stroke-linecap="round" stroke-linejoin="round"/>
<path d="M112.657 109.231C115.174 113.192 117.911 117.009 120.602 120.851" stroke="white" stroke-width="2.76298" stroke-miterlimit="1.5" stroke-linecap="round" stroke-linejoin="round"/>
<path d="M99.3093 64.5823C97.1155 67.0658 99.1504 70.9889 102.352 68.8312C103.464 68.0826 104.257 64.2852 102.093 64.6981" stroke="white" stroke-width="2.76298" stroke-miterlimit="1.5" stroke-linecap="round" stroke-linejoin="round"/>
<path d="M90.0223 47.4528C84.9719 48.9212 84.0676 58.6078 90.4744 57.6662C97.3696 56.6527 98.9839 46.0788 91.2049 46.4248" stroke="white" stroke-width="2.76298" stroke-miterlimit="1.5" stroke-linecap="round" stroke-linejoin="round"/>
</svg>
