<svg width="111" height="111" viewBox="0 0 111 111" fill="none" xmlns="http://www.w3.org/2000/svg">
<path d="M40.2892 38.0514C40.3203 39.8369 40.4429 41.6135 40.5558 43.3946" stroke="white" stroke-width="2.76298" stroke-miterlimit="1.5" stroke-linecap="round" stroke-linejoin="round"/>
<path d="M33.0404 47.4564C34.2989 47.4217 35.5467 47.3168 36.8025 47.2457" stroke="white" stroke-width="2.76298" stroke-miterlimit="1.5" stroke-linecap="round" stroke-linejoin="round"/>
<path d="M44.3609 47.4297C45.4587 47.2249 46.5549 47.0116 47.6493 46.7898" stroke="white" stroke-width="2.76298" stroke-miterlimit="1.5" stroke-linecap="round" stroke-linejoin="round"/>
<path d="M41.1932 51.165C41.067 52.8981 40.9355 54.7352 41.1417 56.4745" stroke="white" stroke-width="2.76298" stroke-miterlimit="1.5" stroke-linecap="round" stroke-linejoin="round"/>
<path d="M51.2584 79.7227C52.2227 79.6302 53.2314 79.624 54.1859 79.4436" stroke="white" stroke-width="2.76298" stroke-miterlimit="1.5" stroke-linecap="round" stroke-linejoin="round"/>
<path d="M58.1924 69.5188C58.0635 71.2945 58.2794 73.0614 58.3239 74.838" stroke="white" stroke-width="2.76298" stroke-miterlimit="1.5" stroke-linecap="round" stroke-linejoin="round"/>
<path d="M58.3933 83.363C58.387 85.0979 58.2537 87.1118 58.571 88.8262" stroke="white" stroke-width="2.76298" stroke-miterlimit="1.5" stroke-linecap="round" stroke-linejoin="round"/>
<path d="M63.6382 79.1281C64.9794 79.0725 66.3171 78.9515 67.6465 78.7655" stroke="white" stroke-width="2.76298" stroke-miterlimit="1.5" stroke-linecap="round" stroke-linejoin="round"/>
<path d="M66.9753 21.4868C67.0882 23.3034 67.2517 25.1112 67.297 26.9314" stroke="white" stroke-width="2.76298" stroke-miterlimit="1.5" stroke-linecap="round" stroke-linejoin="round"/>
<path d="M58.9569 32.7828C60.3665 32.5749 61.7929 32.5055 63.1963 32.3047" stroke="white" stroke-width="2.76298" stroke-miterlimit="1.5" stroke-linecap="round" stroke-linejoin="round"/>
<path d="M67.8976 36.0961C68.2176 38.3926 68.2754 40.9993 68.9153 43.239" stroke="white" stroke-width="2.76298" stroke-miterlimit="1.5" stroke-linecap="round" stroke-linejoin="round"/>
<path d="M73.1208 31.3058C74.5082 31.1485 75.8982 31.1227 77.2874 31.0018" stroke="white" stroke-width="2.76298" stroke-miterlimit="1.5" stroke-linecap="round" stroke-linejoin="round"/>
</svg>
