<svg width="130" height="10" viewBox="0 0 130 10" fill="none" xmlns="http://www.w3.org/2000/svg">
<path d="M2 7.47281C3.41049 7.38087 4.82506 7.71323 6.31873 7.52468C11.5752 6.86051 14.6585 4.76316 17.6658 2.36502C17.8808 2.79673 18.3444 3.145 18.6104 3.3341C19.9786 4.3095 21.7195 5.17786 23.7132 5.6425C29.0524 6.88631 33.4298 4.92921 35.9885 2.26759C35.9885 2.26759 36.3144 2.57936 36.5085 2.72125C36.8703 2.98637 37.2508 3.24271 37.6458 3.49026C39.1131 4.40912 40.8527 5.13806 42.8804 5.5308C48.1537 6.55231 54.7566 5.07329 57.3862 2.08398C57.408 2.18937 58.6917 3.35359 58.8208 3.44773C60.6581 4.78787 62.8536 5.75722 65.6009 6.30036C71.732 7.51261 76.8753 5.19213 79.5939 2C79.694 2.42238 80.9822 3.35963 81.1131 3.44937C82.6745 4.52384 84.3904 5.48689 86.5064 6.15326C91.8692 7.84277 101.564 7.51398 103.418 3.12278C103.396 3.12031 103.904 3.66783 103.984 3.73974C104.542 4.24116 105.198 4.70471 105.91 5.12928C107.655 6.16698 109.814 6.95959 112.083 7.50684C116.376 8.54262 121.242 7.85677 124.956 6.28829C126.115 5.79894 126.895 4.9948 128 4.53702" stroke="#A6D1B9" stroke-width="2.76298" stroke-miterlimit="1.5" stroke-linecap="round" stroke-linejoin="round"/>
</svg>
